<?xml version="1.0" encoding="UTF-8" standalone="no"?>
<!-- Created with Inkscape (http://www.inkscape.org/) -->

<svg
   xmlns:dc="http://purl.org/dc/elements/1.1/"
   xmlns:cc="http://creativecommons.org/ns#"
   xmlns:rdf="http://www.w3.org/1999/02/22-rdf-syntax-ns#"
   xmlns:svg="http://www.w3.org/2000/svg"
   xmlns="http://www.w3.org/2000/svg"
   xmlns:sodipodi="http://sodipodi.sourceforge.net/DTD/sodipodi-0.dtd"
   xmlns:inkscape="http://www.inkscape.org/namespaces/inkscape"
   version="1.0"
   width="1283.24"
   height="1131.083"
   id="svg2848"
   sodipodi:version="0.32"
   inkscape:version="0.92.3 (2405546, 2018-03-11)"
   sodipodi:docname="Wikimedians for Disaster Response - icon.svg">
  <metadata
     id="metadata1970">
    <rdf:RDF>
      <cc:Work
         rdf:about="">
        <dc:format>image/svg+xml</dc:format>
        <dc:type
           rdf:resource="http://purl.org/dc/dcmitype/StillImage" />
        <dc:title></dc:title>
      </cc:Work>
    </rdf:RDF>
  </metadata>
  <sodipodi:namedview
     inkscape:window-height="1689"
     inkscape:window-width="3066"
     inkscape:pageshadow="2"
     inkscape:pageopacity="0.0"
     guidetolerance="10.0"
     gridtolerance="10.0"
     objecttolerance="10.0"
     borderopacity="1.0"
     bordercolor="#666666"
     pagecolor="#ffffff"
     id="base"
     height="900px"
     width="900px"
     inkscape:zoom="0.51444444"
     inkscape:cx="641.93809"
     inkscape:cy="532.54911"
     inkscape:window-x="134"
     inkscape:window-y="55"
     inkscape:current-layer="svg2848"
     showgrid="false"
     fit-margin-top="0"
     fit-margin-left="0"
     fit-margin-right="0"
     fit-margin-bottom="0"
     inkscape:window-maximized="1" />
  <defs
     id="defs2850" />
  <g
     id="g4663"
     transform="translate(191.62003)">
    <path
       d="M 450,0 C 296.44174,0 160.77984,77.047236 79.5625,194.5625 l 87,50.25 C 230.1847,157.10508 333.43928,100 450,100 c 116.56072,0 219.8153,57.10508 283.4375,144.8125 l 87,-50.25 C 739.22016,77.047236 603.55826,0 450,0 Z"
       style="opacity:1;fill:#339966;fill-opacity:1;stroke:none;stroke-width:20;stroke-linecap:round;stroke-linejoin:round;stroke-miterlimit:4;stroke-dasharray:none;stroke-opacity:1"
       id="path4005"
       inkscape:connector-curvature="0" />
    <path
       d="M 32.1875,282.75 C 11.448392,334.46664 0,390.90008 0,450 0,681.50364 175.0975,872.35712 400,897.25 V 796.375 C 230.47074,772.0781 100,626.21538 100,450 c 0,-40.89156 7.03061,-80.13628 19.9375,-116.625 z"
       style="opacity:1;fill:#006699;fill-opacity:1;stroke:none;stroke-width:20;stroke-linecap:round;stroke-linejoin:round;stroke-miterlimit:4;stroke-dasharray:none;stroke-opacity:1"
       id="path4003"
       inkscape:connector-curvature="0" />
    <path
       d="m 867.8125,282.75 -87.75,50.625 C 792.9694,369.86372 800,409.10844 800,450 800,626.21536 669.52928,772.0781 500,796.375 V 897.25 C 724.90248,872.35712 899.99998,681.50364 900,450 900,390.90008 888.5516,334.46664 867.8125,282.75 Z"
       style="opacity:1;fill:#006699;fill-opacity:1;stroke:none;stroke-width:20;stroke-linecap:round;stroke-linejoin:round;stroke-miterlimit:4;stroke-dasharray:none;stroke-opacity:1"
       id="path3918"
       inkscape:connector-curvature="0" />
  </g>
  <polygon
     points="16.854,15.48 16.854,35.183 32.334,35.183 32.334,50.664 52.036,50.664 52.036,35.183 67.517,35.183 67.517,15.48 52.036,15.48 52.036,0 32.334,0 32.334,15.48 "
     id="polygon4625"
     transform="matrix(10.950951,0,0,10.950951,179.64868,171.21551)"
     style="fill:#990000;fill-opacity:1" />
  <g
     id="g4693"
     transform="translate(-2.174262,-56.87689)">
    <path
       style="fill:#339966;fill-opacity:1;stroke-width:11.39836025"
       id="path4627"
       d="M 1185.0973,757.69452 V 563.35248 c 0,-27.54985 22.5688,-50.01602 50.301,-50.01602 27.6296,0 50.016,22.46617 50.016,50.01602 v 266.14031 c 0,36.80531 -13.2449,72.33401 -37.0105,100.11187 l -165.9715,176.23004 c -16.4365,15.4904 -20.5057,29.2253 -20.5057,50.0501 v 32.0751 H 881.30821 l -0.22796,-76.3577 c 0,-29.0772 -2.38227,-67.9227 34.0355,-106.0389 L 1125.6891,794.11228 c 7.4887,-7.23795 17.3369,-11.19318 27.7778,-11.19318 22.0216,0 39.9398,17.87263 39.9398,39.87145 0,9.50624 -3.3625,18.75031 -9.5176,25.97687 l -101.5708,108.82014 c -6.5541,7.7281 -17.7017,22.2838 -23.2299,40.0994 -3.0091,9.24414 -3.864,18.29454 -4.0122,28.60994 h 32.6791 c 0.1368,-7.3632 0.6725,-13.2676 2.4393,-18.7617 3.1915,-10.30424 9.5746,-19.54824 14.3505,-25.48674 l 103.1324,-113.14013 c 12.9713,-13.08532 20.0611,-30.01189 20.0611,-47.79333 -0.011,-26.72916 -16.0717,-51.29263 -42.6413,-63.42048 z"
       inkscape:connector-curvature="0" />
    <path
       style="fill:#339966;fill-opacity:1;stroke-width:11.39836025"
       id="path4629"
       d="M 102.49123,757.69452 V 563.35248 c 0,-27.54985 -22.580151,-50.01602 -50.323751,-50.01602 -27.629636,-0.0114 -49.993217,22.45478 -49.993217,50.01602 v 266.14031 c 0,36.80531 13.233495,72.33401 36.999083,100.11187 L 205.14487,1105.8347 c 16.45924,15.4904 20.49425,29.2253 20.49425,50.0501 v 32.0751 h 180.65262 l 0.21657,-76.3577 c 0,-29.0772 2.37085,-67.9227 -34.0127,-106.0389 L 161.91089,794.11228 c -7.53432,-7.21516 -17.3711,-11.15899 -27.77781,-11.15899 -22.03303,0 -39.974051,17.87263 -39.974051,39.84866 0,9.52904 3.36252,18.75031 9.517631,25.99966 l 101.5936,108.79735 c 6.55404,7.7281 17.70164,22.261 23.24125,40.0766 2.97497,9.25554 3.81844,18.29444 4.01222,28.63274 h -32.7019 c -0.12538,-7.3861 -0.68389,-13.2905 -2.42784,-18.7845 -3.19155,-10.30414 -9.57463,-19.52544 -14.37334,-25.44114 L 79.899679,868.89693 c -12.97133,-13.08532 -20.04971,-30.01188 -20.04971,-47.79333 0.0114,-26.71776 16.04889,-51.28123 42.641261,-63.40908 z"
       inkscape:connector-curvature="0" />
  </g>
</svg>
